<?xml version="1.0" encoding="utf-8"?>
<!-- Generator: Adobe Illustrator 24.0.0, SVG Export Plug-In . SVG Version: 6.00 Build 0)  -->
<svg version="1.1" id="Layer_1" xmlns="http://www.w3.org/2000/svg" xmlns:xlink="http://www.w3.org/1999/xlink" x="0px" y="0px"
	 viewBox="0 0 33 19" style="enable-background:new 0 0 33 19;" xml:space="preserve">
<style type="text/css">
	.st0{clip-path:url(#SVGID_2_);fill:#D00027;}
	.st1{clip-path:url(#SVGID_2_);}
	.st2{clip-path:url(#SVGID_4_);fill:#FFFFFF;}
	.st3{clip-path:url(#SVGID_4_);fill:#D00027;}
</style>
<g id="TURKEY_2_">
	<g>
		<g>
			<defs>
				<rect id="SVGID_1_" y="0" width="33" height="19"/>
			</defs>
			<clipPath id="SVGID_2_">
				<use xlink:href="#SVGID_1_"  style="overflow:visible;"/>
			</clipPath>
			<rect y="0" class="st0" width="33" height="19"/>
			<g class="st1">
				<defs>
					<rect id="SVGID_3_" y="0" width="33" height="19"/>
				</defs>
				<clipPath id="SVGID_4_">
					<use xlink:href="#SVGID_3_"  style="overflow:visible;"/>
				</clipPath>
				<path class="st2" d="M9.6,4.7c2.7,0,4.8,2.1,4.8,4.7c0,2.6-2.2,4.7-4.8,4.7c-2.7,0-4.8-2.1-4.8-4.7C4.8,6.9,7,4.7,9.6,4.7"/>
				<path class="st3" d="M10.8,5.7c2.1,0,3.9,1.7,3.9,3.8c0,2.1-1.7,3.8-3.9,3.8C8.7,13.3,7,11.6,7,9.5C7,7.4,8.7,5.7,10.8,5.7"/>
				<polygon class="st2" points="13.7,9.5 16,10.2 16.4,9.1 				"/>
				<polygon class="st2" points="13.7,9.5 16,8.8 16.4,9.9 				"/>
				<polygon class="st2" points="15.4,7.2 15.4,9.6 16.6,9.6 				"/>
				<polygon class="st2" points="15.4,7.2 16.8,9.2 15.8,9.9 				"/>
				<polygon class="st2" points="15.4,11.8 16.8,9.8 15.8,9.1 				"/>
				<polygon class="st2" points="15.4,11.8 15.4,9.4 16.6,9.4 				"/>
				<polygon class="st2" points="18,8.1 15.8,8.8 16.1,10 				"/>
				<polygon class="st2" points="18,8.1 16.6,10 15.7,9.3 				"/>
				<polygon class="st2" points="18,10.9 16.6,9 15.7,9.7 				"/>
				<polygon class="st2" points="18,10.9 15.8,10.2 16.1,9 				"/>
			</g>
		</g>
	</g>
</g>
</svg>
