<?xml version="1.0" encoding="utf-8"?>
<!-- Generator: Adobe Illustrator 24.1.3, SVG Export Plug-In . SVG Version: 6.00 Build 0)  -->
<svg version="1.1" id="Layer_1" xmlns="http://www.w3.org/2000/svg" xmlns:xlink="http://www.w3.org/1999/xlink" x="0px" y="0px"
	 viewBox="0 0 473.8 473.8" style="enable-background:new 0 0 473.8 473.8;" xml:space="preserve">
<style type="text/css">
	.st0{fill:#FFFFFF;}
</style>
<path class="st0" d="M398.1,282.5c-10.3-10.7-22.7-16.4-35.9-16.4c-13.1,0-25.6,5.6-36.3,16.3l-33.5,33.4c-2.8-1.5-5.5-2.9-8.2-4.2
	c-3.8-1.9-7.4-3.7-10.5-5.6c-31.4-20-60-46-87.3-79.6c-13.3-16.8-22.2-30.9-28.7-45.2c8.7-8,16.8-16.2,24.6-24.2c3-3,5.9-6,8.9-9
	c22.3-22.3,22.3-51.2,0-73.4l-29-29c-3.3-3.3-6.7-6.7-9.9-10.1c-6.4-6.6-13.1-13.4-20-19.7C122.2,5.5,109.9,0.1,97,0.1
	S71.5,5.5,60.9,15.7l-0.2,0.2L24.6,52.3C11,65.9,3.3,82.4,1.6,101.6c-2.5,31,6.6,59.9,13.6,78.7c17.2,46.4,42.9,89.4,81.2,135.4
	c46.5,55.5,102.4,99.3,166.3,130.2c24.4,11.6,57,25.3,93.4,27.6c2.2,0.1,4.6,0.2,6.7,0.2c24.5,0,45.1-8.8,61.2-26.3
	c0.1-0.2,0.3-0.3,0.4-0.5c5.5-6.7,11.9-12.7,18.6-19.2c4.6-4.4,9.2-8.9,13.8-13.7c10.5-10.9,16-23.7,16-36.7
	c0-13.2-5.6-25.8-16.3-36.4L398.1,282.5L398.1,282.5z M436.1,394.2C436,394.2,436,394.3,436.1,394.2c-4.1,4.5-8.4,8.5-12.9,12.9
	c-6.9,6.6-13.9,13.5-20.5,21.2c-10.7,11.5-23.3,16.9-39.9,16.9c-1.6,0-3.3,0-4.9-0.1c-31.5-2-60.8-14.3-82.8-24.8
	c-60.1-29.1-112.8-70.4-156.6-122.7C82.3,254,58.1,213.7,42.1,170.4c-9.9-26.4-13.5-47-11.9-66.4c1.1-12.4,5.8-22.7,14.6-31.5
	L81,36.3c5.2-4.9,10.7-7.5,16.1-7.5c6.7,0,12.1,4,15.5,7.4l0.3,0.3c6.5,6,12.6,12.3,19.1,19c3.3,3.4,6.7,6.8,10.1,10.3l29,29
	c11.2,11.2,11.2,21.6,0,32.9c-3.1,3.1-6,6.2-9.1,9.1c-8.9,9.1-17.4,17.6-26.6,25.9c-0.2,0.2-0.4,0.3-0.5,0.5
	c-9.1,9.1-7.4,18-5.5,24.1l0.3,1c7.5,18.3,18.1,35.4,34.3,55.9l0.1,0.1c29.3,36.1,60.2,64.2,94.2,85.7c4.4,2.8,8.8,5,13.1,7.1
	c3.8,1.9,7.4,3.7,10.5,5.6c0.4,0.2,0.8,0.5,1.3,0.7c3.6,1.8,7,2.7,10.5,2.7c8.8,0,14.3-5.5,16.1-7.3l36.3-36.3c3.6-3.6,9.3-8,16-8
	c6.6,0,12,4.1,15.3,7.7l0.2,0.2L436,361C447,371.8,447,383,436.1,394.2z"/>
</svg>
