<?xml version="1.0" encoding="utf-8"?>
<!-- Generator: Adobe Illustrator 24.1.3, SVG Export Plug-In . SVG Version: 6.00 Build 0)  -->
<svg version="1.1" id="Layer_1" xmlns="http://www.w3.org/2000/svg" xmlns:xlink="http://www.w3.org/1999/xlink" x="0px" y="0px"
	 viewBox="0 0 297 297" style="enable-background:new 0 0 297 297;" xml:space="preserve">
<style type="text/css">
	.st0{fill:#FFFFFF;}
</style>
<path class="st0" d="M289.4,268.3c-0.9,0-1.7-0.1-2.6-0.5c-0.3-0.1-35-11.9-74.9-11.9c-23.1,0-43.3,3.9-60.2,11.6
	c-1,0.5-2.2,0.7-3.3,0.7s-2.3-0.2-3.3-0.7c-16.9-7.7-37.3-11.7-60.3-11.7c-39.8,0-74.4,11.8-74.7,11.9c-0.8,0.3-1.7,0.5-2.6,0.5
	c-1.6,0-3.2-0.5-4.5-1.5c-2-1.5-3.3-3.9-3.3-6.4V69.5c0-4.3,3.5-7.8,7.8-7.8h21.1c1.2,0,2.3-1,2.3-2.3V37.5c0-3.9,2.8-7.2,6.7-7.7
	c0.3,0,7.2-1,17.7-1c9.5,0,18.9,0.8,27.8,2.5c26.9,4.9,48.7,17.2,63.4,35.4c0.5,0.6,1.1,0.9,1.8,0.9s1.4-0.3,1.8-0.9
	c14.5-18.3,36.5-30.6,63.4-35.4c9-1.6,18.3-2.5,27.8-2.5c10.6,0,17.5,1,17.7,1c3.9,0.6,6.7,3.9,6.7,7.7v21.9c0,1.2,1,2.3,2.3,2.3
	h21.1c4.3,0,7.8,3.5,7.8,7.8v191c0,2.5-1.2,4.9-3.3,6.4C292.6,267.9,291,268.3,289.4,268.3L289.4,268.3z M212.4,240.2
	c26.8,0,50.9,4.9,66.3,8.9c0.2,0,0.3,0.1,0.6,0.1c0.5,0,1-0.1,1.4-0.5c0.6-0.5,0.9-1.1,0.9-1.8V79.7c0-1.2-1-2.3-2.3-2.3h-11
	c-1.2,0-2.3,1-2.3,2.3v135c0,2.3-1,4.4-2.7,5.9c-1.5,1.2-3.3,1.9-5.1,1.9c-0.3,0-0.8,0-1.1-0.1c-0.1,0-5.9-0.8-15-0.8
	c-17.5,0-42.7,3-63.4,17.2c-0.9,0.6-1.2,1.7-0.8,2.7c0.3,0.9,1.1,1.4,2.2,1.4h0.3C190.3,241.1,201.1,240.2,212.4,240.2L212.4,240.2z
	 M17.8,77.4c-1.2,0-2.3,1-2.3,2.3v167.2c0,0.7,0.3,1.4,0.9,1.8c0.5,0.3,0.9,0.5,1.4,0.5c0.2,0,0.3,0,0.6-0.1
	c15.4-4.1,39.5-8.9,66.3-8.9c11.2,0,22,0.9,32.1,2.6h0.3c0.9,0,1.7-0.6,2.2-1.4c0.5-1,0.1-2.2-0.8-2.7
	c-20.7-14.2-45.9-17.2-63.4-17.2c-9.1,0-15,0.8-15,0.8c-0.3,0-0.8,0.1-1.1,0.1c-1.9,0-3.7-0.7-5.1-1.9c-1.7-1.5-2.7-3.6-2.7-5.9
	v-135c0-1.2-1-2.3-2.3-2.3L17.8,77.4L17.8,77.4z M241.9,44.4c-22.9,0-64.4,5.2-85.2,40.4c-0.2,0.3-0.3,0.8-0.3,1.1v145.4
	c0,0.9,0.6,1.7,1.4,2c0.3,0.1,0.6,0.2,0.9,0.2c0.6,0,1.1-0.2,1.5-0.6c14-12.6,31.9-21,53.5-24.9c9-1.6,18.3-2.5,27.8-2.5
	c2.2,0,4.3,0,6.4,0.1h0.1c0.6,0,1.1-0.2,1.6-0.7s0.7-1,0.7-1.6V46.8c0-1.2-0.9-2.3-2.2-2.3C246,44.4,243.9,44.4,241.9,44.4
	L241.9,44.4z M55.6,205.7c9.5,0,18.9,0.8,27.8,2.5c21.6,3.9,39.5,12.3,53.5,24.9c0.5,0.3,1,0.6,1.5,0.6c0.3,0,0.7-0.1,0.9-0.2
	c0.8-0.3,1.4-1.1,1.4-2V86c0-0.5-0.1-0.8-0.3-1.1c-20.8-35.2-62.1-40.4-84.9-40.4c-2.2,0-4.3,0-6.5,0.1c-1.2,0-2.2,1-2.2,2.3v156.8
	c0,0.6,0.2,1.2,0.7,1.6c0.5,0.5,1,0.7,1.6,0.7h0.1C51.3,205.9,53.4,205.7,55.6,205.7L55.6,205.7z"/>
</svg>
