<?xml version="1.0" encoding="utf-8"?>
<!-- Generator: Adobe Illustrator 24.1.3, SVG Export Plug-In . SVG Version: 6.00 Build 0)  -->
<svg version="1.1" id="Layer_1" xmlns="http://www.w3.org/2000/svg" xmlns:xlink="http://www.w3.org/1999/xlink" x="0px" y="0px"
	 viewBox="0 0 477 477" style="enable-background:new 0 0 477 477;" xml:space="preserve">
<style type="text/css">
	.st0{fill:#FFFFFF;}
</style>
<path class="st0" d="M377.8,306.5c-27.4,0-51.9,13.1-67.6,33.3l-131.1-73.1c3.1-8.8,4.7-18.4,4.7-28.1c0-9.9-1.6-19.3-4.8-28.3
	l131-73.1c15.5,20.3,40.2,33.5,67.6,33.5c47,0,85.3-38.3,85.3-85.3S424.8,0,377.8,0s-85.3,38.3-85.3,85.3c0,9.9,1.6,19.4,4.8,28.3
	l-130.9,73c-15.5-20.4-40.2-33.5-67.6-33.5c-47,0-85.3,38.3-85.3,85.3s38.3,85.3,85.4,85.3c27.6,0,52.1-13.2,67.7-33.6l131,73.1
	c-3.2,9-4.9,18.5-4.9,28.4c0,47,38.3,85.3,85.3,85.3s85.3-38.3,85.3-85.3S424.9,306.5,377.8,306.5L377.8,306.5z M377.8,26.9
	c32.3,0,58.5,26.3,58.5,58.5s-26.3,58.5-58.5,58.5c-32.3,0-58.5-26.3-58.5-58.5S345.7,26.9,377.8,26.9z M98.9,296.9
	c-32.3,0-58.5-26.3-58.5-58.5s26.3-58.5,58.5-58.5s58.5,26.3,58.5,58.5S131.2,296.9,98.9,296.9z M377.8,450.2
	c-32.3,0-58.5-26.3-58.5-58.5s26.3-58.5,58.5-58.5s58.5,26.3,58.5,58.5S410.1,450.2,377.8,450.2z"/>
</svg>
