<?xml version="1.0" encoding="utf-8"?>
<!-- Generator: Adobe Illustrator 24.1.3, SVG Export Plug-In . SVG Version: 6.00 Build 0)  -->
<svg version="1.1" id="Layer_1" xmlns="http://www.w3.org/2000/svg" xmlns:xlink="http://www.w3.org/1999/xlink" x="0px" y="0px"
	 viewBox="0 0 477 477" style="enable-background:new 0 0 477 477;" xml:space="preserve">
<style type="text/css">
	.st0{fill:#FFFFFF;}
</style>
<g>
	<path class="st0" d="M238.9,477.5c-3.7,0-15.1,0-47.6-29.7c-20.3-18.5-42.5-42.9-62.5-68.6c-31-39.8-83-117-83-185.6
		c0-51.4,20.1-99.8,56.7-136.4c36.6-36.6,85-56.7,136.4-56.7s99.8,20.1,136.4,56.7s56.7,85,56.7,136.4c0,69.9-52.8,147.1-84.2,186.8
		c-19.9,25.2-42.2,49.3-62.6,67.8C253,477.5,242.7,477.5,238.9,477.5z M238.1,454.6L238.1,454.6L238.1,454.6z M238.9,23.4
		c-45.3,0-87.9,17.8-120.2,50s-50,74.9-50,120.2c0,26.1,9.9,82.8,76.1,168.9c18.8,24.5,39.8,47.9,59.2,65.9
		c20.4,19,31.4,25.1,34.7,26.1c8.9-3,48.6-33.7,93.7-91.6C399.1,277.2,409,220,409,193.5c0-45.3-17.8-87.9-50-120.2
		C326.8,41.1,284.1,23.4,238.9,23.4z M238.9,267.6c-39.7,0-72-32.3-72-72s32.3-72,72-72c39.7,0,72,32.3,72,72
		S278.6,267.6,238.9,267.6z M238.9,146.5c-27.1,0-49.1,22-49.1,49.1s22,49.1,49.1,49.1s49.1-22,49.1-49.1S265.9,146.5,238.9,146.5z"
		/>
</g>
</svg>
